# xmcd
#
# Track frame offsets: 
#        150
#        15151
#        33352
#        49494
#        65214
#        78566
#        84431
#        102207
#        118121
#        133816
#        149641
#        180264
#
# Disc length: 2547 seconds
#
# Revision: 1
# Processed by: cddbd v1.5.2PL0 Copyright (c) Steve Scherf et al.
# Submitted via: ExactAudioCopy v1.0b1
#
DISCID=a409f10c
DTITLE=Rihanna - Talk That Talk
DYEAR=2011
DGENRE=R&B
TTITLE0=You Da One
TTITLE1=Where Have You Been
TTITLE2=We Found Love (Feat. Calvin Harris)
TTITLE3=Talk That Talk (Feat. Jay-Z)
TTITLE4=Cockiness (Love It)
TTITLE5=Birthday Cake
TTITLE6=We All Want Love
TTITLE7=Drunk On Love
TTITLE8=Roc Me Out
TTITLE9=Watch N' Learn
TTITLE10=Farewell
TTITLE11=Data: Exclusive Offers
EXTD=Location:  - UPC: 602527904542 - Catalogue number: 2790454 - Label: 
EXTD=Island Def Jam Music Group - ASIN: B0062IAEI2 - Release Date: 2011 
EXTD=11 21 - Discogs: a321128,m386672,r3240273 - MUSICBRAINZ_ALBUMID: 94
EXTD=caea91-4d1f-41f1-8b3c-ce9de80e0ffd - AMG:p704560,r2318208;
EXTT0=
EXTT1=
EXTT2=
EXTT3=
EXTT4=
EXTT5=
EXTT6=
EXTT7=
EXTT8=
EXTT9=
EXTT10=
EXTT11=
PLAYORDER=
